<svg width="21" height="17" viewBox="0 0 21 17" fill="none" xmlns="http://www.w3.org/2000/svg">
<path d="M13.9046 2C12.3228 2 11.0333 3.26805 11.0051 4.84653L10.977 6.42158C10.9711 6.7529 10.6977 7.0167 10.3664 7.0108C10.3428 7.0104 10.3193 7.0086 10.296 7.0054L8.73519 6.7925C6.68168 6.5125 4.71352 5.56731 2.82541 3.99407C2.22744 7.3037 3.39469 9.5972 6.20811 11.3659L7.9551 12.4642C8.23564 12.6406 8.32009 13.011 8.14372 13.2915C8.1033 13.3558 8.05105 13.4118 7.98973 13.4566L6.39807 14.6195C7.34442 14.679 8.24407 14.6375 8.98969 14.4887C13.7073 13.5472 16.8444 9.997 16.8444 4.14104C16.8444 3.66295 15.8321 2 13.9046 2ZM9.00539 4.81086C9.05299 2.14579 11.2282 0 13.9046 0C15.2679 0 16.5012 0.55678 17.3895 1.45535C18.1009 1.45 18.7061 1.62986 20.0582 0.80963C19.724 2.45 19.5581 3.16197 18.8444 4.14104C18.8444 11.7826 14.1473 15.4989 9.38109 16.45C6.11339 17.1021 1.36115 16.0314 0 14.6086C0.69343 14.5553 3.51397 14.252 5.14364 13.0591C3.76463 12.1486 -1.72394 8.9181 1.88241 0.23637C3.57588 2.21303 5.29266 3.55851 7.03276 4.27282C8.19017 4.74794 8.47447 4.73845 9.00539 4.81086Z" fill="black"/>
</svg>
